<svg xmlns="http://www.w3.org/2000/svg" viewBox="0 0 800 400" width="100%">
  <defs>
    <linearGradient id="bg" x1="0%" y1="0%" x2="100%" y2="100%">
      <stop offset="0%" style="stop-color:#1a1a2e"/>
      <stop offset="100%" style="stop-color:#16213e"/>
    </linearGradient>
    <linearGradient id="bar" x1="0%" y1="0%" x2="100%" y2="0%">
      <stop offset="0%" style="stop-color:#e94560"/>
      <stop offset="100%" style="stop-color:#0f3460"/>
    </linearGradient>
  </defs>
  <rect width="800" height="400" rx="12" fill="url(#bg)"/>
  <rect x="30" y="20" width="740" height="50" rx="8" fill="#2d2d44"/>
  <circle cx="55" cy="45" r="6" fill="#ff5f56"/>
  <circle cx="75" cy="45" r="6" fill="#ffbd2e"/>
  <circle cx="95" cy="45" r="6" fill="#27c93f"/>
  <text x="130" y="52" font-family="monospace" font-size="14" fill="#8892b0">cocos-gray-screen-debug-flow — Step-by-step diagnosis</text>
  
  <rect x="30" y="90" width="740" height="1" fill="#3d3d5c"/>
  
  <text x="40" y="130" font-family="monospace" font-size="13" fill="#64ffda">$ cocos-standalone-test</text>
  <text x="40" y="155" font-family="monospace" font-size="12" fill="#a8b2d1">[STANDALONE] Launching Cocos test without IDE...</text>
  <text x="40" y="175" font-family="monospace" font-size="12" fill="#a8b2d1">[STANDALONE] Running on http://localhost:7456</text>
  <text x="40" y="195" font-family="monospace" font-size="12" fill="#27c93f">✅ Scene renders correctly</text>
  <text x="220" y="195" font-family="monospace" font-size="12" fill="#8892b0">|</text>
  <text x="235" y="195" font-family="monospace" font-size="12" fill="#64ffda">=== GRAY SCREEN FIXED ===</text>
  
  <rect x="40" y="215" width="720" height="1" fill="#3d3d5c"/>
  
  <text x="40" y="245" font-family="monospace" font-size="13" fill="#ffd700">17 SKILLS AVAILABLE:</text>
  <text x="40" y="270" font-family="monospace" font-size="11" fill="#8892b0">■ Gray Screen Debug     ■ Dynamic UI Panel     ■ Scene Rebuild</text>
  <text x="40" y="290" font-family="monospace" font-size="11" fill="#8892b0">■ CLI Build Automation  ■ ScrollView UI        ■ Standalone Test</text>
  <text x="40" y="310" font-family="monospace" font-size="11" fill="#8892b0">■ Graphics Prototyping  ■ Mote System          ■ +9 more</text>
  
  <rect x="30" y="340" width="740" height="1" fill="#3d3d5c"/>
  <text x="630" y="370" font-family="monospace" font-size="11" fill="#64ffda">MIT License · Cocos Creator 3.x</text>
</svg>